<svg xmlns="http://www.w3.org/2000/svg" viewBox="0 0 2081.69 710.8"><defs><style>.cls-1,.cls-2{fill:#c38314;}.cls-1{fill-rule:evenodd;}.cls-3{fill:none;stroke:#000;stroke-miterlimit:10;stroke-width:3px;}</style></defs><g id="Camada_2" data-name="Camada 2"><g id="Camada_1-2" data-name="Camada 1"><path class="cls-1" d="M183.8,702c-1.4,2.2-6.7,7.26-8.91,8.82l-10.77-10.5c-5.55-5.23-18.33-20-24-27.25-2.34-3-17.54-22.85-18.42-25.84,1.89-1.06,3.37-2.17,5.34-3.33s3.66-2.5,5.66-3C137.52,649.5,149.9,665,156.47,673l16.79,18.21C176.66,695.1,182.38,700,183.8,702Z"/><path class="cls-1" d="M124.49,140.29l1,5.62C141.6,141.73,155,132.48,166,121.08c4.56-4.74,9.1-13.81,11.67-20.69a103.39,103.39,0,0,0,5-19.44c.26-1.91.36-5.51,1.13-7.22-20.93.5-47.72,17.24-55.1,39.45C126.72,119.13,123.36,134.47,124.49,140.29Z"/><path class="cls-1" d="M104.9,180.41l-.35,1.54Zm0,0c.62-3,2.36-6.34,3.24-9.35,5.27-18,6-34.36-6.64-49.46-3.33-4-9.18-9.26-13.85-11.59l-5.76,9c-9.68,16.91-17,39.48-4.43,57.51,4.43,6.33,10.08,10.56,16.76,14.34,7.66,4.34,11.8,6.76,21.83,8.3,17.91,2.75,32.44-3.77,44-16,3.37-3.56,12.22-13.12,13.21-17.85-10.77-5.37-23.33-13.31-40.11-7.81-8,2.64-17.87,9.81-22.43,16C109.33,175.35,106.38,179.37,104.9,180.41Z"/><path class="cls-1" d="M111.79,618.61l.75,1.4Zm0,0-8.91-10.24c-10-10.27-24.07-19.49-39.11-18.26-7.51.61-15.94,2.41-21.22,5.36,2.53,9.81,16.24,28.35,24.8,34.93,12.76,9.83,28.73,12.83,46.25,4.45,7.26-3.47,12.15-5.89,18.3-11.59a60.62,60.62,0,0,0,6.89-8c13.17-16.67,7-43.58-.86-58.92-8.4.9-22.6,12.64-27.34,21.65-3.21,6.1-3.79,11.06-3.56,20.18C107.28,608,111.33,614.25,111.79,618.61Z"/><path class="cls-1" d="M77.33,242l.22.2s-.28-.13-.22-.2ZM39.86,214.54c.57,24.18,16,32.77,32.29,39.4,18.57,7.54,39.92,5,54.27-10.12,5.35-5.65,15.29-18.31,16.91-26.08-19-9.5-41-9-54.26,7.76-8.63,10.89-4.49,6.3-9.81,14.16A16.57,16.57,0,0,1,78,241.25c.2-3.25,1.42-7.43,2-11.27,2.25-15.54.7-28.21-8.53-39.88-3.93-5-14.59-14.08-21.22-15.47C45.4,184.32,39.51,200.07,39.86,214.54Z"/><path class="cls-1" d="M83.48,559.8l.85,1.36Zm0,0c-1.72-1.89-2.72-4.91-4.85-8s-3.22-4.8-5.33-7.47c-3.75-4.77-7.79-9.2-13-12.49C48,524.1,42.1,524.71,29.52,525c-5.52.1-7,1.25-11.27,1.7.61,5.66,5.48,16.8,7.82,21.54,13.55,27.5,37.63,36.46,67.31,23.12,17.45-7.83,29.58-23.33,29-44.3-.32-11.24-1.88-17.23-4.17-26.11-1.73.88-2.33.64-4.47,1.27-1.81.53-3.37,1.15-4.76,1.69a44.66,44.66,0,0,0-8.19,3.95c-17.68,11.41-19.66,22.09-19,40.73C81.93,553.1,83.3,555.82,83.48,559.8Z"/><path class="cls-1" d="M70,319.34c22.27-.53,36.39-10.2,45.56-29.88,2.1-4.52,6.15-12.71,6.42-17.39-9-.53-37.06-13-55.26,19.24-2.88,5.12-5.07,11.93-6.28,13.39l.34-15.59c-.3-12.53-5.06-24.53-11.18-31.07-5.91-6.32-16.37-13.48-26-15.49-4,8.11-4.31,19.33-5.2,27.54-2,18.68,6.94,35.81,24.11,43.31,4.66,2,7.5,2.59,12.92,3.86C61.08,318.62,62.41,319.52,70,319.34Z"/><path class="cls-1" d="M64.32,498.64c-.1-.15-.2-.58-.23-.48s-.19-.37-.23-.48c-2.62-5.9-4.07-11.19-7.89-17.12S49.45,470.63,44.26,466c-7.52-6.7-18.11-9.53-28.34-10.18-2.29-.14-3-.71-5.61-.43a47.11,47.11,0,0,1-6.49.79c2.91,27.1,16.66,57.67,48.81,56.9a57.73,57.73,0,0,0,12-1.69c5.08-1.07,1.81.67,10.47-2.46,25.68-9.27,33.43-27.06,32.76-55.23-.11-4.31-.83-5.15-.93-9.18-12.26.29-27.21,6.5-34.13,15.18a37.15,37.15,0,0,0-7.9,16.68C63.27,485.06,64.13,490.56,64.32,498.64Z"/><path class="cls-1" d="M5.06,329.38c.82,34.73,13.57,54.21,54.38,53.24,14.84-.36,28.6-7.82,35.13-16.31a59.32,59.32,0,0,0,9-16.3c1.81-4.86,5-14.92,4.85-21-11.54-.69-17.07-3.28-31.21,2.74C62.62,338,52.48,358.08,52.78,370.74h-.71c-.5-21.15-5.77-41.63-25.53-51.56-4.66-2.34-13.4-6.15-19.75-6.14C5.51,315.89,5,324.89,5.06,329.38Z"/><path class="cls-1" d="M.17,391.82c.49,20.44,7.33,41.68,24.34,50.64,18.59,9.79,53.64,5.5,67.12-12.54,4.18-5.58,6.14-9.28,8.46-16.84,3.1-10.12,3.61-15.44,3.34-26.55-20.39.48-38.86,5.32-46.19,27.2a54.35,54.35,0,0,0-3,19.29c-2.49-1.74-1-1.74-3.19-9-5-16.68-11.73-27.54-27.58-34.91C16.3,385.79,9.22,384.52,0,384.74Z"/><path class="cls-1" d="M1897.89,702c1.4,2.2,6.7,7.26,8.91,8.82l10.77-10.5c5.55-5.23,18.33-20,24-27.25,2.35-3,17.55-22.85,18.42-25.84-1.88-1.06-3.37-2.17-5.34-3.33s-3.66-2.5-5.65-3c-4.84,8.63-17.21,24.17-23.79,32.15l-16.79,18.21C1905,695.1,1899.32,700,1897.89,702Z"/><path class="cls-1" d="M1957.21,140.29l-1,5.62c-16.16-4.18-29.59-13.43-40.55-24.83-4.56-4.74-9.11-13.81-11.67-20.69A103.4,103.4,0,0,1,1899,81c-.26-1.91-.36-5.51-1.13-7.22,20.93.5,47.73,17.24,55.11,39.45C1955,119.13,1958.34,134.47,1957.21,140.29Z"/><path class="cls-1" d="M1977.14,182l-.35-1.54Zm-6.15-8.46c-4.55-6.16-14.38-13.33-22.42-16-16.79-5.5-29.35,2.44-40.11,7.81,1,4.73,9.84,14.29,13.2,17.85,11.54,12.24,26.08,18.76,44,16,10-1.54,14.18-4,21.83-8.3,6.68-3.78,12.33-8,16.76-14.34,12.59-18,5.25-40.6-4.42-57.51l-5.76-9c-4.68,2.33-10.52,7.59-13.85,11.59-12.6,15.1-11.92,31.44-6.65,49.46.88,3,2.62,6.36,3.24,9.35C1975.31,179.37,1972.37,175.35,1971,173.49Z"/><path class="cls-1" d="M1969.16,620l.74-1.4Zm5.5-21.8c.23-9.12-.35-14.08-3.55-20.18-4.75-9-18.95-20.75-27.35-21.65-7.81,15.34-14,42.25-.86,58.92a61.38,61.38,0,0,0,6.89,8c6.15,5.7,11,8.12,18.31,11.59,17.51,8.38,33.48,5.38,46.25-4.45,8.55-6.58,22.26-25.12,24.79-34.93-5.27-3-13.71-4.75-21.22-5.36-15-1.23-29.15,8-39.11,18.26l-8.91,10.24C1970.37,614.25,1974.41,608,1974.66,598.21Z"/><path class="cls-1" d="M2004.36,242c.07.07-.2.19-.22.2l.22-.2Zm27.1-67.35c-6.63,1.39-17.29,10.49-21.23,15.47-9.23,11.67-10.77,24.34-8.53,39.88.56,3.84,1.78,8,2,11.27a18.35,18.35,0,0,1-1.24-1.59c-5.32-7.86-1.18-3.27-9.81-14.16-13.3-16.79-35.21-17.26-54.25-7.76,1.61,7.77,11.56,20.43,16.91,26.08,14.35,15.14,35.7,17.66,54.26,10.12,16.33-6.63,31.72-15.22,32.3-39.4C2042.18,200.07,2036.29,184.32,2031.46,174.63Z"/><path class="cls-1" d="M1997.37,561.16l.84-1.36Zm2.55-12.62c.65-18.64-1.33-29.32-19-40.73a44.35,44.35,0,0,0-8.19-3.95c-1.39-.54-2.94-1.16-4.75-1.69-2.15-.63-2.74-.39-4.47-1.27-2.3,8.88-3.86,14.87-4.18,26.11-.59,21,11.55,36.47,29,44.3,29.69,13.34,53.77,4.38,67.32-23.12,2.33-4.74,7.21-15.88,7.81-21.54-4.21-.45-5.75-1.6-11.27-1.7-12.58-.24-18.52-.85-30.79,6.92-5.2,3.29-9.23,7.72-13,12.49-2.11,2.67-3.3,4.56-5.32,7.47s-3.14,6.08-4.86,8C1998.39,555.82,1999.77,553.1,1999.92,548.54Z"/><path class="cls-1" d="M2011.73,319.34c-22.27-.53-36.4-10.2-45.56-29.88-2.1-4.52-6.16-12.71-6.43-17.39,9-.53,37.06-13,55.26,19.24,2.89,5.12,5.08,11.93,6.28,13.39l-.34-15.59c.3-12.53,5.06-24.53,11.19-31.07,5.91-6.32,16.37-13.48,26-15.49,4,8.11,4.32,19.33,5.21,27.54,2,18.68-7,35.81-24.12,43.31-4.65,2-7.5,2.59-12.91,3.86C2020.61,318.62,2019.28,319.52,2011.73,319.34Z"/><path class="cls-1" d="M2017.37,498.64c.1-.15.21-.58.24-.48s.18-.37.23-.48c2.62-5.9,4.07-11.19,7.88-17.12s6.53-9.93,11.71-14.56c7.52-6.7,18.11-9.53,28.35-10.18,2.29-.14,3-.71,5.61-.43a46.73,46.73,0,0,0,6.48.79c-2.91,27.1-16.66,57.67-48.8,56.9a57.83,57.83,0,0,1-12-1.69c-5.08-1.07-1.8.67-10.47-2.46-25.67-9.27-33.42-27.06-32.75-55.23.1-4.31.83-5.15.92-9.18,12.26.29,27.21,6.5,34.14,15.18a37.24,37.24,0,0,1,7.89,16.68C2018.42,485.06,2017.56,490.56,2017.37,498.64Z"/><path class="cls-1" d="M2076.64,329.38c-.83,34.73-13.58,54.21-54.38,53.24-14.85-.36-28.61-7.82-35.14-16.31a59.3,59.3,0,0,1-9-16.3c-1.81-4.86-5-14.92-4.86-21,11.54-.69,17.08-3.28,31.22,2.74,14.61,6.22,24.75,26.29,24.44,38.95h.71c.5-21.15,5.77-41.63,25.54-51.56,4.65-2.34,13.39-6.15,19.74-6.14C2076.18,315.89,2076.74,324.89,2076.64,329.38Z"/><path class="cls-1" d="M2081.53,391.82c-.49,20.44-7.34,41.68-24.35,50.64-18.58,9.79-53.64,5.5-67.12-12.54a47,47,0,0,1-8.46-16.84c-3.09-10.12-3.6-15.44-3.34-26.55,20.4.48,38.86,5.32,46.19,27.2a54.13,54.13,0,0,1,3,19.29c2.5-1.74,1-1.74,3.19-9,5-16.68,11.73-27.54,27.59-34.91,7.18-3.34,14.26-4.61,23.48-4.39Z"/><path d="M254.93,350.61c0-14.41,0-53-2.12-65.26-1.69-8.47-8.05-17.8-15.68-21.62v-1.26H327c45.76,0,88.57-2.12,126.71,24.57s57.21,70.35,57.21,116.12c0,41.1-17.38,83.48-50,109.32-38.56,30.94-80.94,28.82-128.4,28.82H237.13V540c20.76-13.15,17.8-37.3,17.8-59.33ZM333.33,496a71.66,71.66,0,0,0,22.88,3.38c26.7,0,43.64-8.05,57.63-31.36,11.45-19.49,14.83-42.38,14.83-64.83,0-43.65-15.25-95.78-67.37-95.78a156.31,156.31,0,0,0-28,3Z"/><path d="M596.94,457l-10.17,28.82c-3,8.48-7.63,21.62-7.63,30.51,0,11.86,7.63,17.38,15.26,23.74v1.26H507.52V540c16.11-14.83,21.61-27.13,29.24-48.74l58.49-169.09c2.54-8.47,9.31-25,9.31-33.89,0-11.44-7.62-19.08-16.1-24.59v-1.26H692.29l80.09,218.24c10.17,27.12,12.29,36.86,36.44,59.33v1.26h-128V540c9.74-6.36,17.37-12.3,17.37-25.86,0-7.2-.85-9.32-3.39-16.1l-14-41.11Zm40.68-122.88h-.42l-28,83.48h57.63Z"/><path d="M922.08,480.71c0,22-3,46.18,17.81,59.33v1.26h-114V540c20.77-13.15,17.8-37.3,17.8-59.33V323.06c0-22,3-46.18-17.8-59.33v-1.26H951.33c20.76,0,37.72-.42,56.78,9.74,25,13.56,37.72,36,37.72,64.41,0,31.78-22.46,55.1-50.43,67l50.43,84.33c11.44,19.07,23.73,36.87,40.68,50.86l-58.48,3.8c-28.39,1.7-41.95-2.11-56.78-28.39L922.08,421.8Zm0-177.14v95.77c26.29-4.66,45.77-27.12,45.77-53.81,0-13.56-5.5-28-17-36-7.2-5.08-16.1-5.93-24.57-5.93Z"/><path d="M1199.78,494.27c14,5.5,29.66,6.35,44.49,6.35,23.74,0,45.77-3.81,61.87-23.3h2.13l-17,64H1103.58V540c20.76-13.15,17.8-36.88,17.8-58.91V322.64c0-22,3-46.19-17.8-58.91v-1.26h168.65c6.37,0,13.14,0,17.81-2.12h1.27l17,66.44H1307c-11.44-19.92-52.56-22.79-73.33-22.79h-33.89v68.65h73.73c5.94,0,11.87-.43,15.68-2.12h2.12v59.32h-2.12c-5.93-17-59.75-15.25-75.43-15.25h-14Z"/><path d="M1421.53,493.42c13.56,6.35,29.24,7.2,44.49,7.2,23.31,0,41.53-4.65,60.18-18.64l-16.1,59.32H1325.33V540c20.76-13.15,17.8-36.88,17.8-58.91V323.06c0-22,3-46.18-17.8-59.33v-1.26h114v1.26c-20.77,13.15-17.8,37.3-17.8,59.75Z"/><path d="M1632.68,457l-10.17,28.82c-3,8.48-7.62,21.62-7.62,30.51,0,11.86,7.62,17.38,15.25,23.74v1.26h-86.88V540c16.11-14.83,21.62-27.13,29.24-48.74L1631,322.21c2.54-8.47,9.32-25,9.32-33.89,0-11.44-7.63-19.08-16.1-24.59v-1.26H1728l80.08,218.24c10.18,27.12,12.29,36.86,36.45,59.33v1.26h-128V540c9.74-6.36,17.36-12.3,17.36-25.86,0-7.2-.85-9.32-3.38-16.1l-14-41.11Zm40.68-122.88H1673l-28,83.48h57.63Z"/><polygon class="cls-1" points="1040.85 0 1055.43 50.89 1110.86 50.87 1067.31 84.18 1084.12 133.18 1039.35 104 997.58 133.18 1012.66 84.99 970.83 50.87 1023.69 50.83 1040.85 0"/><polygon class="cls-1" points="929.71 54.95 938.27 84.84 970.83 84.83 945.25 104.39 955.12 133.18 928.83 116.04 904.29 133.18 913.15 104.87 888.58 84.83 919.63 84.81 929.71 54.95"/><polygon class="cls-1" points="1151.99 54.95 1160.55 84.84 1193.12 84.83 1167.54 104.39 1177.41 133.18 1151.11 116.04 1126.57 133.18 1135.43 104.87 1110.86 84.83 1141.91 84.81 1151.99 54.95"/><path class="cls-2" d="M740.83,660.8a24.66,24.66,0,0,1-9.57-9.3,27.35,27.35,0,0,1,0-26.63,24.6,24.6,0,0,1,9.6-9.3,28.08,28.08,0,0,1,13.72-3.36,28.49,28.49,0,0,1,10.5,1.9,21.66,21.66,0,0,1,8.17,5.55l-3.43,3.42a20.35,20.35,0,0,0-15.1-6.05,22.12,22.12,0,0,0-11,2.77,20.24,20.24,0,0,0-7.77,7.59,22.14,22.14,0,0,0,0,21.59,20.24,20.24,0,0,0,7.77,7.59,22.12,22.12,0,0,0,11,2.77,20,20,0,0,0,15.1-6.13l3.43,3.43a22,22,0,0,1-8.2,5.58,28.24,28.24,0,0,1-10.55,1.94A27.8,27.8,0,0,1,740.83,660.8Z"/><path class="cls-2" d="M827.45,612.65v51.07h-5.32V640.15h-32v23.57h-5.4V612.65h5.4v22.76h32V612.65Z"/><path class="cls-2" d="M852.66,660.76a24.76,24.76,0,0,1-9.63-9.3,27.2,27.2,0,0,1,0-26.55,24.69,24.69,0,0,1,9.63-9.3,29.52,29.52,0,0,1,27.43,0,24.94,24.94,0,0,1,9.6,9.3,27.08,27.08,0,0,1,0,26.63,24.94,24.94,0,0,1-9.6,9.3,29.52,29.52,0,0,1-27.43,0Zm24.7-4.15A20,20,0,0,0,885,649a22.58,22.58,0,0,0,0-21.67,20,20,0,0,0-7.66-7.59,22.08,22.08,0,0,0-11-2.73,22.3,22.3,0,0,0-11,2.73,20.06,20.06,0,0,0-7.73,7.59,22.29,22.29,0,0,0,0,21.67,20.06,20.06,0,0,0,7.73,7.59,22.3,22.3,0,0,0,11,2.73A22.08,22.08,0,0,0,877.36,656.61Z"/><path class="cls-2" d="M939.73,617.32q5.55,4.66,5.54,12.84T939.73,643q-5.55,4.63-15.32,4.64H910.7v16.12h-5.4V612.65h19.11Q934.19,612.65,939.73,617.32Zm-3.86,22.21q4-3.31,4-9.37t-4-9.52q-4-3.32-11.61-3.32H910.7v25.53h13.56Q931.85,642.85,935.87,639.53Z"/><path class="cls-2" d="M991.38,617.32q5.55,4.66,5.55,12.84T991.38,643q-5.55,4.63-15.32,4.64H962.35v16.12H957V612.65h19.11Q985.84,612.65,991.38,617.32Zm-3.86,22.21q4-3.31,4-9.37t-4-9.52q-4-3.32-11.61-3.32H962.35v25.53h13.56Q983.5,642.85,987.52,639.53Z"/><path class="cls-2" d="M1064.55,659.05v4.67h-36.11V612.65h35v4.67h-29.62v18.16h26.41v4.6h-26.41v19Z"/><path class="cls-2" d="M1108.62,663.72l-16.49-22.47-16.41,22.47h-6.2l19.4-26.27-18.17-24.8H1077l15.39,20.87,15.32-20.87h5.84l-18.09,24.66,19.47,26.41Z"/><path class="cls-2" d="M1157.14,617.32q5.53,4.66,5.54,12.84t-5.54,12.8q-5.55,4.63-15.32,4.64H1128.1v16.12h-5.4V612.65h19.12Q1151.59,612.65,1157.14,617.32Zm-3.87,22.21q4-3.31,4-9.37t-4-9.52q-4-3.32-11.6-3.32H1128.1v25.53h13.57Q1149.26,642.85,1153.27,639.53Z"/><path class="cls-2" d="M1209.22,663.72l-11.67-16.42a35.88,35.88,0,0,1-4.08.22h-13.72v16.2h-5.4V612.65h19.12q9.77,0,15.32,4.67t5.54,12.84a15.85,15.85,0,0,1-11.67,16.05l12.48,17.51Zm-4.3-24.15q4-3.36,4-9.41t-4-9.52q-4-3.32-11.6-3.32h-13.57v25.61h13.57Q1200.91,642.93,1204.92,639.57Z"/><path class="cls-2" d="M1263.21,659.05v4.67H1227.1V612.65h35v4.67H1232.5v18.16h26.41v4.6H1232.5v19Z"/><path class="cls-2" d="M1279.08,662.33a20.06,20.06,0,0,1-8.07-4.81l2.12-4.16a20.39,20.39,0,0,0,7.37,4.49,26.94,26.94,0,0,0,9.48,1.71q6.86,0,10.29-2.52a7.73,7.73,0,0,0,3.43-6.53,6.51,6.51,0,0,0-1.86-4.88,12.55,12.55,0,0,0-4.56-2.81,71.13,71.13,0,0,0-7.52-2.15,80.66,80.66,0,0,1-9.19-2.81,15.14,15.14,0,0,1-5.87-4.12,11,11,0,0,1-2.45-7.52,12.66,12.66,0,0,1,2-7,13.92,13.92,0,0,1,6.27-5.07,25.75,25.75,0,0,1,10.51-1.9,30.7,30.7,0,0,1,8.57,1.21,24.52,24.52,0,0,1,7.26,3.32l-1.83,4.3a25.26,25.26,0,0,0-6.85-3.18,25.84,25.84,0,0,0-7.15-1.05q-6.72,0-10.11,2.59a8,8,0,0,0-3.39,6.67,6.66,6.66,0,0,0,1.86,4.93,12.12,12.12,0,0,0,4.67,2.84q2.81,1,7.55,2.15a76.56,76.56,0,0,1,9.08,2.74,14.92,14.92,0,0,1,5.88,4.09,10.82,10.82,0,0,1,2.4,7.4,12.6,12.6,0,0,1-2.07,7,14,14,0,0,1-6.39,5,26.65,26.65,0,0,1-10.58,1.86A32.65,32.65,0,0,1,1279.08,662.33Z"/><path class="cls-2" d="M1324,662.33a20.06,20.06,0,0,1-8.07-4.81l2.12-4.16a20.3,20.3,0,0,0,7.37,4.49,26.94,26.94,0,0,0,9.48,1.71q6.86,0,10.29-2.52a7.73,7.73,0,0,0,3.43-6.53,6.51,6.51,0,0,0-1.86-4.88,12.55,12.55,0,0,0-4.56-2.81,71.13,71.13,0,0,0-7.52-2.15,80.66,80.66,0,0,1-9.19-2.81,15.14,15.14,0,0,1-5.87-4.12,11,11,0,0,1-2.45-7.52,12.66,12.66,0,0,1,2.05-7,13.92,13.92,0,0,1,6.27-5.07,25.73,25.73,0,0,1,10.5-1.9,30.72,30.72,0,0,1,8.58,1.21,24.64,24.64,0,0,1,7.26,3.32L1350,621a25.26,25.26,0,0,0-6.85-3.18,25.86,25.86,0,0,0-7.16-1.05q-6.7,0-10.1,2.59a8,8,0,0,0-3.39,6.67,6.66,6.66,0,0,0,1.86,4.93,12.12,12.12,0,0,0,4.67,2.84q2.8,1,7.55,2.15a77.15,77.15,0,0,1,9.08,2.74,14.92,14.92,0,0,1,5.88,4.09,10.82,10.82,0,0,1,2.4,7.4,12.6,12.6,0,0,1-2.07,7,14,14,0,0,1-6.39,5,26.65,26.65,0,0,1-10.58,1.86A32.65,32.65,0,0,1,1324,662.33Z"/><line class="cls-3" x1="236.74" y1="638.18" x2="651.65" y2="638.18"/><line class="cls-3" x1="1430.5" y1="638.18" x2="1844.96" y2="638.18"/></g></g></svg>